<?xml version="1.0" standalone="no"?>
<!DOCTYPE svg PUBLIC "-//W3C//DTD SVG 20010904//EN"
 "http://www.w3.org/TR/2001/REC-SVG-20010904/DTD/svg10.dtd">
<svg version="1.0" xmlns="http://www.w3.org/2000/svg"
 width="900.000000pt" height="276.000000pt" viewBox="0 0 900.000000 276.000000"
 preserveAspectRatio="xMidYMid meet">
<g transform="translate(0.000000,276.000000) scale(0.100000,-0.100000)"
fill="#000000" stroke="none">
<path d="M5605 2602 c-47 -17 -65 -44 -65 -101 0 -46 4 -59 27 -83 23 -24 34
-28 83 -28 63 0 90 19 111 78 13 37 -1 82 -34 115 -21 21 -88 31 -122 19z"/>
<path d="M5920 2603 c-74 -30 -78 -157 -5 -187 40 -17 94 -5 122 27 26 28 24
110 -3 137 -21 22 -86 35 -114 23z"/>
<path d="M7770 2603 c-8 -3 -27 -17 -42 -31 -25 -23 -28 -33 -28 -89 0 -55 4
-67 29 -95 26 -29 34 -32 86 -32 55 0 59 2 91 39 27 33 34 49 34 86 0 37 -6
53 -33 83 -26 31 -40 39 -77 42 -25 2 -52 1 -60 -3z"/>
<path d="M212 2573 c-28 -6 -72 -73 -72 -109 0 -14 14 -44 31 -65 29 -36 34
-39 82 -39 59 1 85 17 106 68 12 27 12 40 1 72 -7 22 -20 46 -29 54 -18 16
-83 27 -119 19z"/>
<path d="M465 2541 c-23 -25 -28 -39 -29 -85 0 -60 15 -86 68 -113 26 -13 32
-13 67 3 47 21 79 68 79 117 0 28 -8 44 -35 72 -30 29 -43 35 -78 35 -35 0
-49 -6 -72 -29z"/>
<path d="M2492 2552 c-46 -25 -72 -68 -72 -120 0 -55 23 -94 71 -122 34 -18
43 -20 78 -9 65 19 91 47 97 105 8 64 -14 115 -63 144 -41 24 -67 25 -111 2z"/>
<path d="M7496 2539 c-70 -83 15 -205 106 -152 31 18 33 23 36 77 3 49 0 62
-19 82 -34 36 -90 33 -123 -7z"/>
<path d="M8107 2545 c-42 -29 -77 -90 -77 -134 0 -38 31 -90 69 -119 22 -16
44 -22 79 -22 43 0 53 5 85 36 39 40 53 89 42 152 -7 43 -28 70 -72 95 -43 24
-82 21 -126 -8z"/>
<path d="M6180 2503 c-17 -21 -33 -48 -36 -60 -12 -45 55 -113 111 -113 12 0
39 15 59 33 30 28 36 40 36 76 0 35 -6 47 -32 72 -48 44 -97 41 -138 -8z"/>
<path d="M5282 2514 c-40 -18 -55 -53 -49 -117 6 -70 35 -97 103 -97 48 0 55
3 83 37 18 22 31 49 31 65 0 46 -31 98 -68 114 -42 17 -57 17 -100 -2z"/>
<path d="M2250 2508 c-53 -28 -63 -107 -19 -154 33 -35 110 -34 133 1 21 32
20 104 -2 133 -21 28 -78 38 -112 20z"/>
<path d="M7259 2486 c-77 -51 -75 -160 5 -217 21 -16 51 -29 65 -29 42 0 95
43 110 88 12 35 11 46 -4 87 -21 54 -69 95 -111 94 -16 0 -45 -11 -65 -23z"/>
<path d="M4978 2327 c-69 -60 -66 -142 7 -203 48 -39 90 -44 133 -17 50 33 61
54 62 119 0 57 -2 63 -37 97 -31 32 -43 37 -82 37 -37 0 -53 -6 -83 -33z"/>
<path d="M8446 2345 c-52 -18 -79 -46 -94 -98 -37 -125 87 -231 198 -169 31
17 80 95 80 128 0 21 -30 84 -50 104 -9 9 -34 23 -56 32 -34 14 -45 14 -78 3z"/>
<path d="M7015 2306 c-35 -13 -50 -29 -70 -75 -19 -42 -19 -69 0 -114 32 -77
131 -110 202 -66 98 60 83 210 -26 255 -39 16 -64 16 -106 0z"/>
<path d="M189 2274 c-19 -21 -24 -36 -23 -80 0 -76 27 -104 101 -104 48 0 57
4 84 32 40 45 41 109 2 150 -23 24 -34 28 -83 28 -48 0 -60 -4 -81 -26z"/>
<path d="M611 2275 c-81 -29 -105 -129 -51 -203 29 -41 32 -42 88 -42 49 0 61
4 89 30 36 34 48 73 38 129 -7 44 -35 73 -84 90 -39 13 -35 13 -80 -4z"/>
<path d="M2492 2265 c-38 -17 -56 -56 -47 -104 14 -73 101 -96 156 -42 50 50
32 125 -36 151 -33 12 -33 12 -73 -5z"/>
<path d="M2151 2243 c-32 -40 -35 -68 -14 -110 16 -31 27 -40 62 -47 54 -12
86 3 107 48 19 39 14 70 -17 109 -17 23 -28 27 -69 27 -41 0 -52 -4 -69 -27z"/>
<path d="M4795 2098 c-43 -15 -53 -25 -75 -76 -25 -55 -25 -69 -1 -122 24 -54
67 -80 132 -80 161 0 193 224 39 277 -41 15 -55 15 -95 1z"/>
<path d="M2061 2024 c-26 -21 -31 -33 -31 -69 0 -64 37 -105 95 -105 36 0 48
5 69 31 42 49 33 117 -19 149 -44 27 -77 25 -114 -6z"/>
<path d="M2495 2038 c-70 -25 -102 -88 -81 -158 32 -109 182 -124 230 -23 50
106 -43 219 -149 181z"/>
<path d="M6795 2006 c-22 -12 -45 -33 -51 -45 -7 -13 -17 -28 -23 -34 -6 -6
-11 -37 -11 -69 0 -57 1 -60 50 -108 47 -48 51 -50 105 -50 66 0 101 17 133
64 36 53 42 87 23 137 -21 59 -38 80 -84 107 -48 28 -91 27 -142 -2z"/>
<path d="M236 2008 c-40 -15 -60 -37 -73 -84 -26 -85 29 -164 114 -164 56 0
93 21 116 66 36 72 6 150 -68 179 -46 17 -49 17 -89 3z"/>
<path d="M735 1974 c-58 -21 -84 -58 -85 -119 0 -42 5 -57 31 -88 29 -35 34
-37 88 -37 52 0 60 3 91 35 32 33 35 40 33 96 -2 78 -20 100 -98 122 -11 3
-38 -1 -60 -9z"/>
<path d="M8647 1977 c-26 -7 -51 -25 -75 -55 -31 -38 -35 -50 -35 -100 0 -80
29 -125 103 -158 30 -13 43 -14 87 -3 166 39 170 268 6 317 -22 7 -42 11 -44
11 -2 -1 -21 -6 -42 -12z"/>
<path d="M3529 1923 c-86 -53 -76 -190 16 -235 53 -26 81 -20 129 27 33 32 36
39 36 93 0 54 -3 61 -37 95 -30 31 -43 37 -77 37 -23 0 -53 -8 -67 -17z"/>
<path d="M3870 1886 c-64 -36 -91 -131 -53 -186 32 -47 56 -59 109 -60 44 0
54 4 82 33 29 30 32 38 32 98 0 55 -4 69 -22 86 -50 45 -100 55 -148 29z"/>
<path d="M3234 1829 c-23 -14 -35 -32 -44 -65 -12 -40 -11 -51 6 -91 41 -100
159 -110 214 -20 23 38 24 58 6 112 -27 76 -113 107 -182 64z"/>
<path d="M1936 1759 c-34 -40 -35 -97 -3 -127 37 -35 73 -44 113 -27 40 17 58
54 51 108 -7 49 -39 76 -94 77 -34 0 -46 -5 -67 -31z"/>
<path d="M4629 1728 c-97 -75 -77 -229 36 -283 44 -20 78 -19 124 4 61 32 91
79 91 146 0 45 -5 63 -26 91 -63 82 -151 98 -225 42z"/>
<path d="M2495 1715 c-63 -34 -75 -53 -75 -122 0 -66 7 -78 60 -116 28 -20 81
-22 113 -6 63 33 84 77 72 155 -11 76 -103 125 -170 89z"/>
<path d="M848 1682 c-57 -27 -78 -61 -78 -124 1 -57 13 -79 62 -111 34 -21 68
-22 110 -1 50 24 71 58 72 118 0 62 -22 98 -77 121 -46 18 -43 18 -89 -3z"/>
<path d="M225 1672 c-48 -30 -58 -48 -58 -106 0 -62 21 -98 69 -115 63 -23
124 -9 158 37 26 34 26 120 0 155 -36 47 -116 61 -169 29z"/>
<path d="M4140 1676 c-49 -27 -70 -69 -70 -140 0 -64 0 -65 44 -100 69 -57
148 -47 205 26 30 38 29 128 -1 169 -40 53 -124 74 -178 45z"/>
<path d="M3018 1643 c-17 -2 -40 -20 -60 -46 -28 -35 -33 -48 -33 -99 0 -51 4
-61 33 -91 67 -69 166 -68 219 1 20 27 25 45 25 92 0 104 -74 162 -184 143z"/>
<path d="M6713 1610 c-52 -31 -68 -65 -67 -140 0 -53 5 -72 24 -98 13 -17 31
-32 39 -32 9 0 25 -7 35 -15 27 -20 59 -19 110 5 65 29 96 76 96 145 0 64 -29
113 -83 140 -42 21 -115 19 -154 -5z"/>
<path d="M1846 1517 c-31 -41 -33 -69 -5 -113 39 -63 130 -58 162 9 35 71 -7
137 -87 137 -39 0 -48 -4 -70 -33z"/>
<path d="M8655 1439 c-16 -10 -42 -33 -57 -51 -24 -29 -27 -42 -28 -100 0 -76
17 -113 66 -147 53 -36 95 -44 149 -26 83 29 115 75 115 168 0 58 -4 73 -26
103 -14 18 -41 43 -59 54 -42 26 -119 26 -160 -1z"/>
<path d="M2446 1369 c-21 -24 -26 -41 -26 -82 1 -105 106 -162 196 -106 38 23
49 52 47 122 -2 76 -28 97 -119 97 -68 0 -74 -2 -98 -31z"/>
<path d="M5751 1363 c-35 -43 -38 -69 -14 -111 41 -71 147 -63 170 13 22 71
-18 135 -86 135 -34 0 -44 -6 -70 -37z"/>
<path d="M6018 1382 c-31 -19 -53 -79 -44 -117 16 -64 95 -96 142 -57 61 49
57 138 -9 175 -35 20 -54 20 -89 -1z"/>
<path d="M6299 1376 c-120 -81 -14 -273 111 -200 82 49 78 149 -8 206 -36 24
-61 23 -103 -6z"/>
<path d="M235 1367 c-53 -25 -70 -53 -69 -115 0 -51 3 -58 39 -89 32 -28 46
-33 88 -33 28 0 61 7 79 18 37 21 71 85 63 115 -14 47 -29 73 -51 90 -32 24
-111 31 -149 14z"/>
<path d="M955 1335 c-32 -32 -35 -41 -35 -91 0 -41 6 -62 22 -85 42 -56 138
-59 195 -5 19 18 23 32 23 87 0 62 -2 69 -32 98 -27 27 -39 31 -85 31 -47 0
-56 -4 -88 -35z"/>
<path d="M4275 1321 c-59 -27 -85 -60 -91 -117 -9 -81 6 -124 55 -161 81 -63
181 -38 230 58 26 48 26 87 4 136 -23 47 -39 64 -85 86 -45 21 -63 21 -113 -2z"/>
<path d="M4670 1317 c-51 -24 -80 -73 -80 -133 0 -42 12 -68 53 -111 27 -29
37 -33 83 -33 42 0 59 5 84 26 32 27 70 91 70 118 0 21 -31 87 -50 106 -38 38
-110 50 -160 27z"/>
<path d="M1752 1290 c-28 -23 -39 -82 -23 -123 13 -32 72 -62 107 -53 75 19
100 111 45 167 -36 35 -93 39 -129 9z"/>
<path d="M2880 1286 c-47 -26 -70 -70 -70 -133 1 -45 6 -64 23 -84 70 -80 162
-79 226 3 30 37 30 134 0 172 -42 53 -123 72 -179 42z"/>
<path d="M6760 1223 c-30 -6 -69 -36 -92 -71 -23 -35 -25 -144 -3 -162 8 -7
15 -18 15 -24 1 -15 37 -40 81 -56 78 -28 174 29 200 118 17 57 -1 114 -48
157 -45 41 -83 51 -153 38z"/>
<path d="M2490 1103 c-84 -16 -116 -139 -54 -212 46 -55 144 -54 195 2 25 27
29 40 29 87 0 50 -3 59 -32 88 -34 32 -86 45 -138 35z"/>
<path d="M6304 1075 c-36 -16 -74 -71 -74 -106 0 -27 27 -72 56 -94 27 -20
104 -19 129 3 69 59 53 165 -29 196 -48 18 -42 18 -82 1z"/>
<path d="M225 1042 c-48 -30 -58 -48 -58 -106 0 -82 43 -126 123 -126 80 0
123 44 123 126 0 39 -5 60 -19 75 -45 50 -116 63 -169 31z"/>
<path d="M1660 1043 c-54 -22 -68 -118 -25 -165 34 -36 62 -42 108 -23 123 51
42 237 -83 188z"/>
<path d="M1096 1006 c-49 -65 -24 -166 46 -181 48 -11 101 4 123 33 30 40 28
122 -4 156 -21 22 -33 26 -82 26 -53 0 -58 -2 -83 -34z"/>
<path d="M8565 926 c-43 -25 -85 -92 -85 -137 0 -40 37 -105 76 -135 62 -48
140 -40 200 20 45 45 49 170 6 218 -23 28 -90 58 -125 58 -18 -1 -50 -11 -72
-24z"/>
<path d="M4805 922 c-72 -25 -107 -90 -85 -158 21 -65 51 -87 118 -88 44 -1
64 4 89 22 37 26 46 49 45 111 0 36 -6 50 -35 78 -35 36 -89 50 -132 35z"/>
<path d="M2869 893 c-62 -69 -63 -157 -1 -223 19 -21 31 -24 91 -24 78 0 102
15 134 86 21 45 21 57 -1 104 -33 74 -48 84 -127 84 -65 0 -73 -2 -96 -27z"/>
<path d="M4233 867 c-54 -20 -75 -58 -75 -132 1 -95 46 -145 134 -145 80 0
138 60 138 144 0 105 -96 170 -197 133z"/>
<path d="M6863 793 c-21 -21 -45 -53 -52 -71 -12 -28 -11 -38 6 -77 30 -69 64
-90 145 -90 65 0 69 2 105 38 36 36 38 40 37 101 0 61 -2 65 -40 100 -36 33
-44 36 -100 36 -56 0 -63 -3 -101 -37z"/>
<path d="M6307 785 c-21 -7 -40 -15 -41 -17 -42 -64 -46 -94 -16 -143 11 -17
38 -40 60 -50 40 -18 41 -18 84 3 34 17 46 30 56 62 33 99 -46 179 -143 145z"/>
<path d="M2462 749 c-34 -22 -62 -74 -62 -116 0 -57 71 -133 124 -133 34 0 84
25 114 57 28 31 31 126 4 158 -49 58 -120 72 -180 34z"/>
<path d="M235 745 c-51 -22 -68 -49 -68 -109 0 -64 20 -96 78 -121 33 -14 46
-15 77 -6 45 14 87 56 90 91 6 86 -11 121 -71 146 -40 17 -66 17 -106 -1z"/>
<path d="M1191 703 c-24 -29 -31 -47 -31 -79 0 -35 6 -48 41 -83 47 -47 75
-51 126 -20 74 46 85 137 22 200 -14 14 -33 19 -73 19 -51 0 -57 -3 -85 -37z"/>
<path d="M1533 716 c-62 -28 -82 -115 -40 -177 21 -31 28 -34 77 -36 64 -3 90
13 110 69 11 31 11 44 0 78 -22 66 -85 94 -147 66z"/>
<path d="M8323 630 c-41 -25 -83 -91 -83 -130 0 -17 11 -48 24 -69 56 -88 141
-108 207 -48 84 77 70 195 -28 250 -41 22 -80 22 -120 -3z"/>
<path d="M5033 590 c-23 -9 -63 -77 -63 -105 0 -18 26 -62 52 -87 23 -24 105
-24 133 0 11 9 29 34 40 54 l19 37 -22 46 c-29 60 -92 82 -159 55z"/>
<path d="M3049 567 c-63 -55 -74 -110 -33 -170 28 -41 58 -57 107 -57 54 0 72
10 100 53 29 45 34 81 15 124 -21 49 -57 72 -113 72 -37 0 -57 -5 -76 -22z"/>
<path d="M4041 537 c-39 -12 -91 -78 -91 -114 0 -33 27 -83 59 -110 20 -17 39
-22 82 -23 51 0 59 3 92 37 32 31 37 43 37 81 0 55 -34 105 -87 127 -40 17
-45 17 -92 2z"/>
<path d="M7195 531 c-11 -5 -31 -21 -45 -35 -20 -22 -24 -37 -24 -82 1 -50 4
-58 39 -90 32 -29 44 -34 88 -34 65 0 110 27 131 82 16 38 16 43 0 82 -10 23
-29 50 -43 61 -27 21 -114 30 -146 16z"/>
<path d="M6205 473 c-43 -11 -65 -44 -65 -96 0 -67 28 -113 75 -121 82 -16
134 27 134 109 0 65 -28 101 -84 108 -22 3 -49 3 -60 0z"/>
<path d="M266 442 c-102 -14 -140 -140 -67 -220 50 -54 125 -55 184 -2 30 26
32 33 32 93 0 51 -4 70 -20 87 -33 36 -75 50 -129 42z"/>
<path d="M2480 423 c-48 -33 -59 -55 -59 -113 0 -58 20 -95 66 -119 46 -23
120 -7 155 34 22 27 31 88 18 133 -19 69 -121 106 -180 65z"/>
<path d="M5271 403 c-44 -53 -42 -91 9 -144 37 -40 42 -41 86 -36 34 3 54 13
80 38 44 42 45 81 4 137 -29 41 -31 42 -89 42 -57 0 -61 -2 -90 -37z"/>
<path d="M1349 407 c-73 -49 -75 -173 -4 -217 44 -27 112 -26 146 3 31 26 59
77 59 107 0 39 -37 95 -74 113 -49 23 -86 21 -127 -6z"/>
<path d="M7587 416 c-60 -27 -88 -131 -50 -186 31 -45 56 -59 104 -60 38 0 52
6 85 34 37 32 39 36 39 92 0 71 -22 107 -76 123 -45 14 -66 13 -102 -3z"/>
<path d="M7984 416 c-37 -16 -74 -75 -74 -118 0 -17 9 -45 20 -63 46 -75 121
-87 186 -31 37 32 39 37 39 92 0 71 -22 107 -76 123 -46 14 -57 13 -95 -3z"/>
<path d="M3385 411 c-61 -27 -85 -125 -44 -181 32 -43 71 -56 119 -40 61 20
75 42 75 114 0 50 -4 65 -23 84 -25 25 -94 37 -127 23z"/>
<path d="M5650 394 c-51 -22 -79 -61 -80 -110 0 -34 6 -47 37 -77 30 -31 43
-37 77 -37 57 1 96 34 103 88 10 71 -11 112 -68 136 -30 12 -39 12 -69 0z"/>
<path d="M5918 393 c-43 -49 -48 -94 -18 -152 21 -43 35 -51 85 -51 55 0 81
15 98 58 13 32 14 48 5 78 -19 69 -36 83 -99 84 -41 0 -60 -5 -71 -17z"/>
<path d="M3686 386 c-30 -13 -65 -66 -66 -99 0 -23 27 -77 51 -99 12 -12 34
-18 66 -18 61 0 93 31 100 93 6 56 -9 93 -49 117 -37 23 -60 24 -102 6z"/>
</g>
</svg>
