<svg version="1.1" viewBox="0 0 413.319 398.6970684039088" xmlns="http://www.w3.org/2000/svg" style="max-height: 500px" width="413.319" height="398.6970684039088"><path fill-rule="evenodd" fill="#3d3d3d" stroke="none" d="M 826.922 23.274 C 816.830 30.075, 816.167 43.449, 825.566 50.618 C 828.855 53.127, 830.206 53.500, 835.999 53.500 C 841.925 53.500, 843.047 53.172, 846.256 50.500 C 850.781 46.732, 853.449 40.384, 852.737 35.079 C 852.128 30.532, 847.923 24.529, 843.886 22.441 C 839.477 20.161, 830.917 20.581, 826.922 23.274 M 875.290 22.016 C 874.075 22.505, 871.672 24.839, 869.950 27.203 C 867.191 30.989, 866.868 32.114, 867.234 36.658 C 867.761 43.204, 869.945 46.513, 875.526 49.225 C 879.866 51.333, 880.073 51.342, 885.438 49.651 C 892.507 47.423, 895.267 43.784, 895.741 36.065 C 896.145 29.496, 894.801 26.456, 890.088 23.280 C 886.515 20.872, 879.599 20.282, 875.290 22.016 M 1147.500 22.363 C 1131.428 29.827, 1134.870 55.833, 1152.304 58.662 C 1164.656 60.666, 1175.610 49.472, 1173.600 36.900 C 1172.038 27.134, 1166.191 21.750, 1156.630 21.275 C 1152.873 21.088, 1149.339 21.509, 1147.500 22.363 M 35.123 25.972 C 29.925 27.246, 26.675 30.240, 24.668 35.604 C 22.455 41.520, 23.039 46.907, 26.455 52.094 C 33.127 62.224, 49.012 60.790, 54.095 49.599 C 56.578 44.130, 56.473 39.356, 53.750 33.985 C 50.335 27.248, 42.923 24.060, 35.123 25.972 M 73.015 28.752 C 63.836 33.357, 62.176 49.381, 70.121 56.688 C 71.430 57.891, 74.623 59.443, 77.217 60.137 C 86.388 62.588, 95.063 56.431, 96.567 46.404 C 97.606 39.471, 94.596 32.184, 89.499 29.298 C 84.621 26.535, 77.878 26.312, 73.015 28.752 M 1112.418 27.969 C 1109.679 29.077, 1105.161 34.508, 1104.376 37.637 C 1101.802 47.894, 1111.085 57.844, 1120.666 55.096 C 1128.189 52.938, 1131 49.218, 1131 41.418 C 1131 31.155, 1121.514 24.289, 1112.418 27.969 M 370 29.118 C 366.830 30.376, 361.257 35.683, 359.415 39.200 C 357.503 42.850, 357.621 52.398, 359.630 56.634 C 363.238 64.235, 373.094 69.129, 380.683 67.085 C 393.797 63.554, 399.451 50.954, 393.580 38.345 C 390.476 31.678, 384.645 27.970, 377.412 28.063 C 374.710 28.098, 371.375 28.573, 370 29.118 M 1199.502 29.575 C 1194.827 32.013, 1192.902 34.104, 1190.368 39.500 C 1187.677 45.229, 1187.241 53.251, 1189.347 58.282 C 1192.022 64.671, 1201.421 70.973, 1208.307 70.994 C 1213.372 71.010, 1219.129 68.555, 1222.856 64.790 C 1233.007 54.539, 1229.895 34.774, 1217.282 29.377 C 1212.950 27.523, 1203.229 27.632, 1199.502 29.575 M 918.445 32.959 C 915.167 34.286, 910.156 40.652, 909.457 44.376 C 908.413 49.941, 911.774 56.228, 917.194 58.852 C 922.352 61.349, 925.759 61.545, 930.383 59.613 C 940.712 55.297, 941.761 38.545, 932 33.798 C 928.273 31.986, 921.833 31.587, 918.445 32.959 M 783.219 34.256 C 773.210 37.463, 769.719 53.055, 777.122 61.486 C 782.982 68.161, 794.809 68.306, 800.909 61.779 C 808.744 53.396, 805.985 38.612, 795.827 34.547 C 791.464 32.802, 788.006 32.722, 783.219 34.256 M 336.542 34.687 C 328.471 36.913, 324.698 46.556, 328.416 55.454 C 330.485 60.406, 334.052 62.333, 341.143 62.333 C 346.518 62.333, 347.448 62.013, 350.265 59.197 C 353 56.462, 353.445 55.256, 353.742 49.780 C 354.116 42.869, 352.976 39.767, 349 36.874 C 346.342 34.941, 339.792 33.790, 336.542 34.687 M 1077.759 37.400 C 1069.613 40.358, 1066.093 45.054, 1065.216 54.133 C 1064.605 60.453, 1066.286 64.897, 1071.045 69.544 C 1074.854 73.263, 1075.430 73.482, 1082.280 73.817 C 1088.570 74.125, 1089.951 73.865, 1093 71.797 C 1102.529 65.333, 1104.053 50.666, 1096.132 41.648 C 1092.225 37.200, 1083.723 35.234, 1077.759 37.400 M 740.500 59.890 C 725.478 66.823, 725.355 87.528, 740.289 95.148 C 743.506 96.788, 745.527 97.122, 749.663 96.695 C 756.247 96.016, 760.255 93.694, 763.766 88.525 C 766.116 85.066, 766.500 83.493, 766.500 77.336 C 766.500 70.985, 766.157 69.680, 763.475 65.836 C 758.178 58.246, 749.134 55.905, 740.500 59.890 M 1246.625 60.469 C 1241.002 62.473, 1236.615 67.207, 1234.674 73.365 C 1232.592 79.971, 1232.594 81.036, 1234.704 87.730 C 1239.481 102.884, 1259.113 106.864, 1269.459 94.776 C 1276.649 86.377, 1276.291 73.451, 1268.648 65.516 C 1262.657 59.295, 1254.903 57.518, 1246.625 60.469 M 1037.684 65.449 C 1029.772 68.271, 1025.617 74.963, 1025.546 85 C 1025.454 98.058, 1032.968 106, 1045.417 106 C 1052.285 106, 1056.480 104.316, 1060.689 99.869 C 1064.833 95.490, 1066 92.200, 1066 84.895 C 1066 69.514, 1052.425 60.191, 1037.684 65.449 M 35.500 65.713 C 32.611 66.408, 27.974 70.985, 26.377 74.718 C 24.560 78.965, 24.635 84.048, 26.588 88.928 C 30.802 99.460, 45.368 102.040, 52.803 93.572 C 58.760 86.787, 59.346 79.144, 54.474 71.781 C 50.682 66.051, 43.561 63.774, 35.500 65.713 M 88.383 71.487 C 78.897 77.173, 77.265 93.228, 85.298 101.831 C 90.408 107.304, 99.394 108.805, 106.594 105.388 C 119.808 99.118, 120.336 78.569, 107.470 71.282 C 101.856 68.102, 93.887 68.187, 88.383 71.487 M 367.920 71.275 C 365.659 72.799, 363.941 75.175, 362.717 78.471 C 360.953 83.221, 360.952 83.565, 362.695 88.407 C 365.170 95.283, 369.654 98.350, 376.324 97.729 C 382.596 97.144, 386.069 94.444, 388.329 88.396 C 389.879 84.250, 389.978 82.888, 388.981 79.500 C 388.333 77.300, 387.061 74.666, 386.154 73.648 C 381.653 68.591, 373.480 67.528, 367.920 71.275 M 326.073 70.729 C 319.812 71.907, 316 77.333, 316 85.067 C 316 91.347, 318.478 95.569, 323.626 98.061 C 329.356 100.835, 334.146 100.054, 338.576 95.624 C 343.222 90.978, 344.337 86.061, 342.203 79.630 C 340.739 75.221, 339.873 74.184, 336.038 72.250 C 331.589 70.006, 330.664 69.865, 326.073 70.729 M 709.500 96.502 C 703.909 98.479, 699.548 103.604, 697.520 110.580 C 695.927 116.059, 695.925 116.820, 697.488 122.595 C 700.113 132.293, 707.527 138, 717.500 138 C 732.400 138, 741.483 124.357, 736.859 108.922 C 733.553 97.889, 721.304 92.328, 709.500 96.502 M 312.500 104.012 C 307.416 105.098, 305.282 106.787, 302.977 111.547 C 298.400 121.003, 303.641 131.337, 313.697 132.686 C 322.455 133.861, 329 127.440, 329 117.673 C 329 112.632, 328.623 111.560, 325.750 108.432 C 322.216 104.586, 317.375 102.970, 312.500 104.012 M 370.143 104.547 C 350.912 110.307, 353.569 140.139, 373.460 141.788 C 384.003 142.663, 390.792 137.755, 393.060 127.621 C 396.469 112.391, 384.428 100.268, 370.143 104.547 M 1007.828 108.577 C 999.847 111.033, 992 122.398, 992 131.500 C 992 137.365, 995.277 144.579, 1000.038 149.195 C 1007.706 156.631, 1017.892 157.975, 1027.268 152.790 C 1041.073 145.153, 1043.745 124.619, 1032.339 113.809 C 1025.778 107.590, 1017.073 105.732, 1007.828 108.577 M 35.384 109.913 C 27.204 113.628, 22.574 123.834, 25.052 132.687 C 27.417 141.131, 34.571 147, 42.500 147 C 46.523 147, 52.489 144.772, 55.320 142.212 C 63.163 135.119, 62.619 118.057, 54.367 112.304 C 47.862 107.770, 41.787 107.005, 35.384 109.913 M 110 113.690 C 102.755 116.261, 97 124.694, 97 132.739 C 97 137.335, 101.186 146.241, 104.298 148.265 C 114.279 154.755, 126.579 151.938, 131.648 142 C 135.582 134.288, 134.022 122.821, 128.355 117.788 C 124.021 113.940, 114.982 111.922, 110 113.690 M 1279.123 114.002 C 1273.734 115.275, 1267.965 120.043, 1264.609 126 C 1260.194 133.837, 1260.273 141.126, 1264.866 149.659 C 1267.693 154.911, 1269.036 156.274, 1273.981 158.909 C 1290.350 167.634, 1308.989 156.235, 1308.989 137.500 C 1308.989 130.156, 1307.109 125.794, 1301.654 120.479 C 1294.673 113.678, 1288.279 111.840, 1279.123 114.002 M 524 121.702 C 523.175 122.001, 521.019 123.646, 519.209 125.358 C 510.167 133.912, 512.473 151.200, 523.345 156.359 C 527.634 158.395, 536.160 158.486, 539.931 156.536 C 546.650 153.061, 550.632 144.982, 549.662 136.793 C 548.417 126.284, 542.434 120.962, 532 121.083 C 528.425 121.124, 524.825 121.403, 524 121.702 M 573.500 127.519 C 562.973 132.806, 559.640 146.209, 566.209 156.838 C 570.448 163.697, 582.616 166.145, 590.500 161.725 C 599.845 156.486, 601.787 140.843, 594.211 131.839 C 589.494 126.233, 580.003 124.253, 573.500 127.519 M 485.340 133.948 C 476.392 136.108, 471.659 142.322, 471.592 152 C 471.512 163.523, 478.439 171, 489.194 171 C 504.110 171, 512.399 156.260, 505.327 142.311 C 502.318 136.376, 492.428 132.237, 485.340 133.948 M 291.256 143.645 C 282.095 148.161, 281.562 162.735, 290.346 168.491 C 299.705 174.623, 311.385 167.654, 311.385 155.939 C 311.385 145.304, 300.891 138.895, 291.256 143.645 M 689.500 148.377 C 683.542 151.187, 680.826 153.952, 678.084 160 C 672.738 171.793, 678.458 187.951, 689.632 192.620 C 693.858 194.385, 704.110 194.399, 708.310 192.644 C 712.630 190.839, 720.575 181.877, 721.367 177.915 C 722.429 172.606, 722.075 164.116, 720.652 160.718 C 717.179 152.431, 707.735 146.020, 699 146.020 C 696.353 146.020, 692.441 146.990, 689.500 148.377 M 372.170 151.992 C 367.873 153.009, 362.213 157.613, 359.855 162.009 C 357.646 166.129, 357.396 174.621, 359.347 179.282 C 361.242 183.808, 368.167 189.753, 372.488 190.564 C 385.057 192.922, 396.036 183.899, 395.978 171.261 C 395.939 162.744, 391.354 155.717, 383.768 152.548 C 379.773 150.878, 377.367 150.763, 372.170 151.992 M 37.684 157.396 C 32.817 159.199, 30.295 161.504, 27.764 166.464 C 24.963 171.952, 25.131 179.706, 28.168 185.167 C 33.491 194.736, 48.820 197.150, 56.847 189.683 C 63.727 183.284, 64.944 172.046, 59.626 164.012 C 55.261 157.416, 45.540 154.484, 37.684 157.396 M 125.500 157.881 C 118.675 161.015, 115 167.182, 115 175.500 C 115 186.999, 121.812 194, 133 194 C 146.621 194, 154.883 182.353, 150.838 168.852 C 147.761 158.584, 135.516 153.281, 125.500 157.881 M 613.500 158.364 C 604.352 162.610, 599.809 174.574, 602.993 186.035 C 604.107 190.046, 610.110 196.358, 614.315 197.940 C 619.257 199.801, 628.071 199.210, 632.458 196.725 C 642.035 191.301, 645.572 179.297, 640.717 168.692 C 637.181 160.969, 632.072 157.652, 623.111 157.261 C 618.985 157.080, 615.372 157.495, 613.500 158.364 M 444.496 164.810 C 437.969 167.861, 433 176.414, 433 184.597 C 433 205.780, 460.067 214.072, 471.854 196.500 C 475.105 191.653, 475.195 191.249, 474.788 183.335 C 474.325 174.346, 472.354 170.524, 465.757 165.827 C 461.286 162.643, 450.260 162.116, 444.496 164.810 M 997.634 166.031 C 988.069 168.896, 982.500 177.165, 982.500 188.500 C 982.500 202.218, 990.156 210.877, 1003.112 211.814 C 1018.507 212.928, 1029.452 201.008, 1027.589 185.156 C 1025.890 170.705, 1011.883 161.762, 997.634 166.031 M 279.127 178.166 C 266.656 184.339, 269.342 203.192, 283.021 205.504 C 290.936 206.841, 297.952 200.941, 298.695 192.324 C 299.267 185.690, 296.800 181.155, 291.038 178.250 C 285.526 175.471, 284.586 175.464, 279.127 178.166 M 1280.459 193.367 C 1275.069 195.877, 1270.535 200.501, 1268.348 205.718 C 1266.342 210.506, 1266.643 223.622, 1268.871 228.500 C 1273.831 239.360, 1285.013 244.582, 1297.705 241.966 C 1302.620 240.953, 1304.274 239.992, 1308.600 235.636 C 1317.998 226.171, 1319.220 212.540, 1311.681 201.260 C 1305.226 191.602, 1291.631 188.165, 1280.459 193.367 M 368.393 198.928 C 364.967 200.394, 360.156 207.027, 359.172 211.642 C 357.514 219.414, 360.471 228.034, 366.282 232.365 C 368.292 233.863, 370.990 234.547, 376.004 234.830 C 382.083 235.174, 383.496 234.899, 387.386 232.619 C 390.795 230.622, 392.233 228.956, 393.570 225.457 C 397.063 216.311, 394.946 205.576, 388.735 200.938 C 386.091 198.964, 384.130 198.478, 378 198.275 C 373.875 198.138, 369.552 198.432, 368.393 198.928 M 855.500 200.954 C 854.400 201.409, 852.541 202.843, 851.370 204.141 C 843.824 212.497, 847.210 224.885, 857.915 228.093 C 861.555 229.183, 862.650 229.099, 866.675 227.420 C 880.451 221.671, 876.322 199.846, 861.500 200.067 C 859.300 200.100, 856.600 200.499, 855.500 200.954 M 891.500 201.954 C 888.763 203.086, 885.352 206.923, 884.067 210.315 C 881.439 217.250, 884.208 224.954, 890.406 227.955 C 895.510 230.425, 897.714 230.499, 903.024 228.374 C 910.281 225.470, 913.090 216.017, 909.050 208.098 C 906.056 202.229, 897.812 199.343, 891.500 201.954 M 933.445 201.904 C 930.166 203.319, 925.174 209.640, 924.056 213.792 C 923.032 217.594, 923.550 221.005, 926.094 227.201 C 928.331 232.652, 936.244 235.570, 944.177 233.869 C 957.616 230.986, 960.420 212.375, 948.730 203.648 C 945.802 201.462, 936.840 200.440, 933.445 201.904 M 34.363 205.250 C 23.313 212.635, 22.039 225.520, 31.460 234.595 C 38.832 241.695, 48.424 242.443, 56.887 236.578 C 66.673 229.797, 67.804 216.074, 59.262 207.775 C 54.621 203.265, 51.397 202, 44.548 202 C 40.208 202, 38.329 202.600, 34.363 205.250 M 150.646 204.097 C 145.189 205.393, 141.499 208.338, 139.086 213.323 C 133.526 224.807, 139.765 239.602, 150.965 241.494 C 164.130 243.718, 173.523 235.782, 173.445 222.500 C 173.397 214.319, 170.515 208.893, 164.783 206.193 C 159.161 203.544, 155.352 202.979, 150.646 204.097 M 635.836 209.933 C 626.045 211.868, 618 222.563, 618 233.644 C 618 238.681, 621.631 247.250, 625.248 250.751 C 629.604 254.967, 634.830 257.005, 641.218 256.978 C 661.715 256.893, 671.564 231.126, 656.882 215.998 C 654.707 213.757, 651.931 211.552, 650.714 211.098 C 647.058 209.735, 639.737 209.162, 635.836 209.933 M 690.287 212.022 C 682.010 216.246, 677.575 226.890, 679.955 236.814 C 684.716 256.659, 710.872 258.672, 718.983 239.818 C 722.944 230.611, 719.833 218.928, 711.969 213.478 C 706.388 209.611, 696.336 208.936, 690.287 212.022 M 262.367 214.918 C 257.341 217.983, 256 220.701, 256 227.823 C 256 233.712, 256.254 234.454, 259.321 237.521 C 261.310 239.510, 264.135 241.122, 266.364 241.541 C 271.587 242.520, 278.598 239.707, 281.081 235.635 C 283.678 231.376, 283.627 223.541, 280.974 219.190 C 277.394 213.317, 268.384 211.249, 262.367 214.918 M 429.625 215.469 C 412.435 221.596, 411.280 247.712, 427.883 254.854 C 441.669 260.785, 455.383 252.898, 456.708 238.278 C 457.418 230.448, 455.775 225.546, 450.662 220.236 C 444.807 214.156, 437.777 212.563, 429.625 215.469 M 999 225.954 C 988.453 229.576, 982.088 239.877, 983.277 251.398 C 984.594 264.160, 994.045 272.938, 1006.500 272.968 C 1016.213 272.992, 1026.619 265.612, 1029.015 257 C 1030.559 251.452, 1030.144 242.914, 1028.114 238.444 C 1025.792 233.332, 1019.132 227.574, 1013.205 225.554 C 1007.429 223.586, 1005.759 223.633, 999 225.954 M 370.728 242.327 C 359.311 245.878, 353.154 258.240, 357.551 268.782 C 359.396 273.208, 364.514 278.798, 368 280.197 C 371.535 281.615, 380.584 281.269, 383.792 279.593 C 386.873 277.984, 391.217 273.548, 392.878 270.316 C 394.469 267.219, 394.281 255.439, 392.589 252.200 C 390.405 248.020, 385.901 244.229, 381.110 242.539 C 376.080 240.764, 375.773 240.758, 370.728 242.327 M 930.985 248.290 C 925.679 251.096, 922.500 256.606, 922.500 263 C 922.500 272.213, 930.046 280.024, 938.907 279.984 C 943.938 279.961, 950.038 276.203, 952.713 271.480 C 957.314 263.357, 954.482 252.819, 946.480 248.287 C 941.390 245.404, 936.440 245.405, 930.985 248.290 M 33.907 252.488 C 28.743 256.236, 25.845 261.926, 25.787 268.432 C 25.724 275.426, 28.334 280.651, 33.787 284.447 C 41.998 290.163, 54.372 287.928, 59.782 279.753 C 65.198 271.570, 63.651 260.745, 56.031 253.505 C 53.177 250.793, 52.150 250.479, 45.189 250.195 C 38.222 249.909, 37.163 250.125, 33.907 252.488 M 247.396 252.429 C 239.917 255.685, 236.955 265.978, 241.210 273.923 C 244.437 279.946, 249.196 282.415, 255.045 281.101 C 263.382 279.228, 268.457 272.945, 267.698 265.436 C 266.550 254.070, 257.276 248.129, 247.396 252.429 M 168.809 253.240 C 167.330 253.933, 164.742 256.249, 163.059 258.388 C 160.392 261.776, 160 263.072, 160 268.487 C 160 273.789, 160.435 275.301, 162.969 278.798 C 166.759 284.031, 169.202 285.294, 175.451 285.252 C 182.403 285.205, 185.469 283.759, 188.580 279.059 C 193.670 271.367, 192.835 262.140, 186.492 255.993 C 183.503 253.095, 182.224 252.584, 177.261 252.305 C 174.015 252.122, 170.326 252.531, 168.809 253.240 M 1268.845 268.485 C 1262.707 270.743, 1260.437 272.783, 1257.409 278.762 C 1251.670 290.097, 1254.806 303.316, 1264.939 310.500 C 1268.762 313.210, 1269.918 313.500, 1276.909 313.500 C 1283.751 313.500, 1285.218 313.152, 1289.574 310.495 C 1295.502 306.878, 1299.136 300.403, 1299.812 292.254 C 1300.372 285.500, 1297.625 276.769, 1293.802 273.155 C 1287.944 267.617, 1276.849 265.541, 1268.845 268.485 M 708.257 271.517 C 699.793 275.803, 696.374 282.428, 698.055 291.289 C 699.189 297.272, 703.038 302.656, 708.071 305.303 C 710.637 306.652, 713.185 307.022, 718.194 306.774 C 723.876 306.491, 725.462 305.981, 728.694 303.399 C 733.834 299.292, 735.997 294.718, 735.998 287.950 C 736.002 273.521, 721.392 264.866, 708.257 271.517 M 428.411 271.891 C 424.143 274.494, 421.419 278.224, 419.445 284.167 C 417.465 290.126, 417.882 294.661, 421.024 301.335 C 424.082 307.831, 429.292 311.249, 436.984 311.805 C 444.739 312.366, 449.035 310.771, 453.858 305.539 C 458.388 300.624, 459.448 296.877, 458.810 288.047 C 458.327 281.373, 454.658 274.984, 449.500 271.838 C 445.243 269.241, 432.706 269.272, 428.411 271.891 M 625.347 279.003 C 617.238 283.123, 613.318 293.221, 615.439 304.525 C 616.247 308.833, 622.200 315.762, 626.718 317.653 C 635.911 321.502, 647.297 317.901, 652.500 309.501 C 655.055 305.375, 655.495 303.682, 655.463 298.078 C 655.391 285.326, 648.440 277.834, 636.111 277.221 C 630.906 276.962, 628.617 277.341, 625.347 279.003 M 1021.511 284.601 C 1019.317 285.404, 1015.833 287.710, 1013.769 289.725 C 1000.962 302.231, 1007.949 322.402, 1026.170 325.521 C 1034.892 327.013, 1046.398 321.016, 1049.648 313.282 C 1051.397 309.119, 1051.382 299.826, 1049.619 295.718 C 1045.360 285.792, 1032.333 280.640, 1021.511 284.601 M 932.333 290.097 C 928.344 291.252, 924.370 295.912, 922.984 301.060 C 920.336 310.894, 926.513 320.560, 936.661 322.464 C 939.199 322.940, 941.509 322.456, 945.574 320.595 C 950.098 318.524, 951.403 317.330, 953.008 313.791 C 959.765 298.903, 948.098 285.533, 932.333 290.097 M 367 294.677 C 356.999 299.864, 353.407 311.455, 358.663 321.581 C 359.751 323.678, 362.292 326.730, 364.311 328.364 C 372.035 334.615, 384.724 332.505, 390.931 323.937 C 393.662 320.167, 394 318.927, 394 312.688 C 394 300.858, 388.097 293.912, 376.753 292.393 C 373.318 291.933, 371.442 292.373, 367 294.677 M 36.384 295.913 C 28.885 299.319, 24.395 308.253, 25.947 316.681 C 26.832 321.489, 28.090 323.801, 31.664 327.186 C 35.348 330.676, 39.032 332.011, 44.815 331.952 C 51.102 331.888, 55.789 329.395, 59.458 324.164 C 62.117 320.374, 62.500 318.980, 62.500 313.091 C 62.500 307.377, 62.072 305.708, 59.684 302.098 C 54.736 294.622, 44.949 292.024, 36.384 295.913 M 184.500 297.502 C 173.919 301.243, 170.056 314.249, 176.563 324.222 C 181.030 331.069, 189.668 333.297, 197.306 329.574 C 204.616 326.011, 208.204 318.233, 206.567 309.504 C 205.670 304.726, 199.810 298.319, 195.152 297.025 C 190.491 295.731, 189.368 295.781, 184.500 297.502 M 229.247 299.652 C 225.454 300.473, 220.299 306.176, 219.005 310.982 C 215.788 322.928, 222.854 333, 234.452 333 C 242.222 333, 247.027 329.445, 249.559 321.823 C 253.032 311.367, 246.543 300.361, 236.432 299.557 C 233.719 299.341, 230.486 299.384, 229.247 299.652 M 1232.500 312.431 C 1223.930 315.564, 1217.898 326.579, 1219.420 336.320 C 1220.356 342.315, 1225.601 349.604, 1230.800 352.134 C 1236.367 354.843, 1246.566 354.461, 1250.681 351.389 C 1263.874 341.539, 1263.611 321.549, 1250.185 313.682 C 1245.959 311.206, 1237.489 310.607, 1232.500 312.431 M 749.123 318.027 C 740.802 319.930, 736.638 326.216, 737.328 335.832 C 737.705 341.083, 738.271 342.677, 740.641 345.171 C 744.629 349.367, 748.177 351, 753.302 351 C 760.530 351, 767.254 345.243, 768.983 337.574 C 770.619 330.321, 765.574 320.283, 759.500 318.705 C 754.707 317.461, 752.289 317.303, 749.123 318.027 M 454.042 320.798 C 452.140 321.734, 449.215 324.451, 447.542 326.836 C 444.883 330.626, 444.500 332.020, 444.500 337.909 C 444.500 349.775, 450.856 356.298, 462.500 356.381 C 469.999 356.434, 474.120 354.354, 477.676 348.722 C 484.039 338.643, 480.376 324.691, 470.258 320.463 C 465.636 318.532, 458.340 318.683, 454.042 320.798 M 598.202 327.049 C 590.586 330.105, 584.194 339.827, 585.525 346.329 C 587.491 355.926, 593.588 362.216, 602.174 363.503 C 615.688 365.530, 627.334 353.474, 623.991 340.916 C 622.405 334.956, 618.586 330.170, 613.616 327.913 C 609.244 325.928, 602.007 325.522, 598.202 327.049 M 1067.479 326.882 C 1060.590 328.642, 1054.484 335.119, 1053.416 341.800 C 1052.590 346.966, 1055.137 354.799, 1058.777 358.285 C 1069.405 368.466, 1087.475 364.212, 1092.013 350.460 C 1094.265 343.638, 1090.570 333.715, 1084.230 329.554 C 1080.151 326.877, 1072.361 325.634, 1067.479 326.882 M 915.852 337.128 C 914.395 337.662, 911.920 339.951, 910.352 342.214 C 904.788 350.243, 907.140 362.698, 915.109 367.405 C 918.478 369.395, 927.159 369.486, 930.865 367.570 C 932.387 366.783, 934.839 364.396, 936.316 362.266 C 938.486 359.134, 939 357.265, 939 352.500 C 939 342.345, 932.858 335.922, 923.300 336.079 C 920.660 336.122, 917.308 336.595, 915.852 337.128 M 37.500 341.389 C 25.438 346.658, 21.417 360.479, 28.817 371.234 C 35.994 381.665, 49.378 382.624, 58.197 373.339 C 61.568 369.790, 64.007 364.072, 63.978 359.782 C 63.954 356.173, 60.852 348.600, 58.195 345.662 C 53.588 340.567, 43.941 338.575, 37.500 341.389 M 371.685 341.966 C 367.170 343.403, 361.910 347.972, 360.270 351.882 C 359.435 353.872, 358.770 357.828, 358.793 360.674 C 358.898 373.796, 368.534 381.521, 381.723 379.057 C 397.709 376.071, 400.537 351.137, 385.767 343.398 C 382.217 341.538, 375.253 340.830, 371.685 341.966 M 785.500 341.963 C 784.400 342.423, 781.963 344.405, 780.085 346.368 C 777.271 349.307, 776.591 350.881, 776.225 355.304 C 775.706 361.554, 777.084 364.823, 782.383 369.915 C 785.334 372.752, 786.865 373.407, 791.425 373.785 C 796.074 374.171, 797.619 373.827, 801.520 371.541 C 809.931 366.612, 812.196 358.771, 807.750 349.970 C 804.577 343.689, 800.128 340.984, 793.102 341.063 C 790.021 341.098, 786.600 341.503, 785.500 341.963 M 202.421 344.896 C 194.528 348.481, 190.713 357.468, 193.014 367.058 C 195.198 376.161, 201.320 381, 210.652 381 C 223.320 381, 231.160 370.325, 228.582 356.586 C 226.626 346.157, 213.025 340.080, 202.421 344.896 M 1123.834 344.575 C 1118.015 346.366, 1114.610 350.287, 1112.983 357.070 C 1108.920 374.008, 1123.837 386.425, 1139.030 378.750 C 1150.169 373.123, 1152.239 358.004, 1143.120 348.885 C 1139.786 345.551, 1133.826 342.912, 1130 343.075 C 1129.175 343.110, 1126.400 343.786, 1123.834 344.575 M 1181.033 344.821 C 1173.059 347.876, 1168.060 359.593, 1170.969 368.407 C 1174.542 379.232, 1185.882 383.961, 1196.599 379.095 C 1202.297 376.507, 1207.011 369.027, 1206.994 362.601 C 1206.973 354.700, 1200.700 346.120, 1193.477 344.115 C 1188.253 342.665, 1186.382 342.771, 1181.033 344.821 M 505.123 345.086 C 500.894 345.979, 497.180 348.693, 494.162 353.092 C 492.183 355.978, 491.884 357.456, 492.209 362.739 C 492.799 372.310, 499.064 379, 507.436 379 C 520.310 379, 528.505 366.190, 523.110 354.500 C 522.095 352.300, 520.192 349.515, 518.882 348.311 C 515.948 345.615, 509.628 344.133, 505.123 345.086 M 880.475 346.009 C 878.811 346.522, 875.973 348.465, 874.167 350.327 C 871.519 353.060, 870.775 354.776, 870.317 359.213 C 869.596 366.201, 871.093 370.729, 875.555 375.053 C 878.805 378.203, 879.559 378.464, 885.460 378.481 C 895.688 378.511, 901.143 373.252, 901.791 362.739 C 902.116 357.456, 901.817 355.978, 899.838 353.092 C 898.552 351.218, 896.375 348.858, 895 347.848 C 892.005 345.648, 884.666 344.719, 880.475 346.009 M 546.450 349.407 C 535.239 354.290, 533.710 371.854, 543.898 378.713 C 548.113 381.550, 555.926 381.796, 560.946 379.248 C 566.168 376.598, 569.315 369.975, 568.638 363.059 C 568.018 356.731, 565.868 353.390, 560.406 350.266 C 556.006 347.750, 550.966 347.440, 546.450 349.407 M 833.405 348.974 C 832.253 349.440, 829.890 351.613, 828.155 353.804 C 825.357 357.337, 825 358.514, 825 364.200 C 825 371.347, 827.311 375.695, 833.037 379.321 C 837.747 382.303, 846.986 381.338, 851.090 377.436 C 855.520 373.225, 857 369.823, 857 363.853 C 857 357.859, 853.639 351.899, 848.865 349.430 C 845.865 347.879, 836.777 347.610, 833.405 348.974"/></svg>
